<svg xmlns="http://www.w3.org/2000/svg" width="500" height="500" viewBox="0 0 500 500" version="1.1"><path d="M 302 239.500 C 302 269, 302 269, 308 269 C 314 269, 314 269, 314 239.500 C 314 210, 314 210, 308 210 C 302 210, 302 210, 302 239.500 M 145.204 235.064 C 126.660 244.521, 135.064 271.632, 155.952 269.738 C 165.212 268.898, 166.470 267.842, 163.992 262.984 C 162.024 259.126, 161.887 259.054, 157.675 259.631 C 151.719 260.447, 147.800 257.220, 147.800 251.500 C 147.800 245.822, 151.695 242.593, 157.723 243.272 C 163.308 243.902, 168.173 237.233, 163.826 234.907 C 159.495 232.589, 149.898 232.669, 145.204 235.064 M 184.500 234.417 C 170.352 240.732, 170.491 262.536, 184.718 268.623 C 189.708 270.758, 195.209 270.348, 199.360 267.530 C 202.812 265.188, 203 265.162, 203 267.030 C 203 268.771, 203.697 269, 209 269 C 215 269, 215 269, 215 251.500 C 215 234, 215 234, 209 234 C 204.330 234, 203 234.333, 203 235.502 C 203 236.749, 202.365 236.664, 199.265 235.002 C 194.989 232.710, 188.868 232.468, 184.500 234.417 M 244.250 235.115 C 241.474 236.893, 241 236.963, 241 235.598 C 241 234.312, 239.831 234, 235 234 C 229 234, 229 234, 229 251.500 C 229 269, 229 269, 235 269 C 241 269, 241 269, 241 257.691 C 241 244.531, 241.772 242.669, 247.021 243.171 C 251.910 243.639, 252.967 246.402, 252.985 258.750 C 253 269, 253 269, 259 269 C 265 269, 265 269, 265 257.934 C 265 245.057, 265.735 243, 270.335 243 C 275.533 243, 276 244.171, 276 257.200 C 276 269, 276 269, 282.613 269 C 292.900 269, 291.887 238.776, 281.454 234.416 C 275.415 231.893, 268.603 233.158, 265.027 237.467 C 263.820 238.922, 263.510 238.889, 261.600 237.100 C 256.840 232.642, 249.434 231.795, 244.250 235.115 M 323.031 234.750 C 323.048 235.162, 326.612 241.766, 330.952 249.424 C 338.841 263.348, 338.841 263.348, 332.913 275.174 C 326.985 287, 326.985 287, 333.874 287 C 340.157 287, 357.643 260.136, 367.833 234.828 C 370.703 227.700, 353.707 235.186, 350.413 242.500 C 345.769 252.812, 346.467 252.812, 341 242.500 C 336.967 234.893, 322.783 228.775, 323.031 234.750 M 191.315 244.007 C 184.332 246.821, 186.068 258.138, 193.710 259.614 C 197.715 260.388, 203 255.772, 203 251.500 C 203 246.043, 196.542 241.901, 191.315 244.007" stroke="none" fill="#2ec57a" fillRule="evenodd"/></svg>